<?xml version="1.0" encoding="UTF-8"?>
<svg id="Layer_1" data-name="Layer 1" xmlns="http://www.w3.org/2000/svg" viewBox="0 0 248.38 248.38">

<style>


svg:hover {
  filter: drop-shadow(0 0  10px  rgba(204, 0, 0, 1));
}

svg:hover {
    cursor: pointer; 
    transform: rotate(360deg) scale(2);
    transition: transform 2s ease-in-out; 
    
    }



</style>
<script>
console.log('JavaScript is running!');



const vectorGraphic = document.querySelector('#Layer_1');

function logThisId() {
    console.log(this);
    console.log('planet earth:', this.id);
}

vectorGraphic.addEventListener('click', logThisId);
</script>
  <circle cx="124.19" cy="124.19" r="124.19" fill="#bd963d" stroke-width="0"/>
  <path d="M22.01,53.62l2.07,2.07c4.85,4.85,12.71,4.85,17.56,0h0s14.05-14.05,14.05-14.05c4.71-4.71,2.49-14.61-2.09-19.61-12.34,8.55-23.04,19.25-31.59,31.6M101.83,4.97c0,6.86,5.56,12.42,12.42,12.42h19.87c6.86,0,12.42-5.56,12.42-12.42v-2.92c-7.26-1.32-14.72-2.05-22.35-2.05s-15.1.73-22.35,2.05v2.92ZM194.77,22.03c-4.58,5-6.8,14.9-2.09,19.61l14.05,14.05c4.85,4.85,12.71,4.85,17.56,0,0,0,0,0,0,0l2.07-2.07c-8.54-12.35-19.24-23.05-31.59-31.6M226.36,194.75l-2.07-2.07c-4.85-4.85-12.71-4.85-17.56,0l-14.05,14.05c-4.85,4.85-4.85,12.71,0,17.56l2.07,2.07c12.35-8.55,23.06-19.26,31.61-31.61M41.64,192.68c-4.85-4.85-12.71-4.85-17.56,0l-2.07,2.07c8.54,12.34,19.25,23.05,31.59,31.6,4.58-5.01,6.81-14.9,2.09-19.61l-14.05-14.06ZM243.41,101.83c-6.86,0-12.42,5.56-12.42,12.42v19.87c0,6.86,5.56,12.42,12.42,12.42h2.92c1.32-7.26,2.04-14.72,2.04-22.35s-.73-15.1-2.04-22.35h-2.92ZM146.54,243.41c0-6.86-5.56-12.42-12.42-12.42h-19.87c-6.86,0-12.42,5.56-12.42,12.42v2.92c7.26,1.32,14.72,2.04,22.35,2.04s15.1-.73,22.35-2.04v-2.92ZM4.97,146.54c6.86,0,12.42-5.56,12.42-12.42v-19.87c0-6.86-5.56-12.42-12.42-12.42h-2.92c-1.32,7.26-2.05,14.72-2.05,22.35s.73,15.1,2.05,22.35h2.92Z" fill="#231f20" stroke-width="0"/>
  <circle cx="124.35" cy="123.96" r="81.96" fill="#c8a42f" stroke-width="0"/>
  <circle cx="125.43" cy="125.76" r="62.09" fill="#fff" stroke-width="0"/>
  <path d="M79.84,124.17c-1.11-.18-2.17-.5-3.18-.96s-1.86-1.01-2.56-1.66l1.39-2.01c.26-.35.66-.57,1.1-.58.23,0,.47.06.71.18l.79.44.93.53c.34.18.72.33,1.16.44l.53-5.47c-.7-.19-1.39-.42-2.07-.68-.67-.25-1.3-.61-1.85-1.06-.56-.46-1.02-1.04-1.34-1.7-.34-.69-.51-1.55-.51-2.59,0-.76.15-1.51.46-2.24.32-.74.78-1.4,1.35-1.96.64-.61,1.38-1.09,2.19-1.43.87-.37,1.86-.56,2.98-.56l.16-1.63c.03-.27.15-.52.36-.74s.49-.33.83-.33h1.65l-.29,2.85c1.04.19,1.94.5,2.69.93s1.39.89,1.91,1.38l-1.1,1.61c-.13.21-.3.39-.5.53-.18.11-.39.17-.6.17l-.52-.1-.64-.25-.75-.33-.85-.3-.51,5.14,1.39.44c.46.16.91.34,1.34.55s.83.45,1.2.72c.77.55,1.33,1.33,1.62,2.22.15.48.23,1.02.23,1.63,0,.92-.15,1.78-.46,2.59-.3.8-.77,1.52-1.36,2.14-.63.64-1.38,1.15-2.2,1.51-.87.39-1.86.63-2.98.72l-.17,1.81c-.03.28-.16.54-.36.73-.22.22-.52.34-.83.33h-1.65l.29-2.99ZM79.17,108.63c0,.57.18,1.03.54,1.38s.84.65,1.43.89l.43-4.37c-.39.05-.76.15-1.12.3-.27.11-.52.27-.74.47-.18.17-.32.38-.41.62-.09.23-.13.47-.13.72M85.31,118c.02-.49-.17-.97-.53-1.32-.41-.36-.88-.64-1.4-.83l-.46,4.78c1.59-.28,2.39-1.16,2.39-2.64M96.09,140.73h6.95v-18.26c0-.89.02-1.83.07-2.81l-4.1,3.4c-.24.2-.51.35-.79.46-.25.09-.51.13-.77.14-.4,0-.8-.09-1.15-.28-.29-.15-.55-.36-.76-.61l-2.43-3.23,11.28-9.47h6.36v30.65h5.96v5.56h-20.62v-5.56ZM146.46,128.19c0,3.16-.34,5.9-1.02,8.22-.68,2.32-1.62,4.24-2.82,5.76s-2.63,2.66-4.27,3.4-3.43,1.12-5.35,1.12-3.7-.37-5.33-1.12-3.04-1.88-4.23-3.4-2.12-3.44-2.79-5.76c-.67-2.32-1.01-5.06-1.01-8.22s.34-5.9,1.01-8.22c.67-2.32,1.6-4.24,2.79-5.76s2.6-2.65,4.23-3.39,3.41-1.11,5.33-1.11,3.71.37,5.35,1.11c1.65.74,3.07,1.87,4.27,3.39s2.14,3.44,2.82,5.76c.68,2.32,1.02,5.06,1.02,8.22M138.51,128.19c0-2.5-.16-4.55-.47-6.15s-.73-2.85-1.25-3.77c-.52-.91-1.11-1.53-1.78-1.88s-1.33-.51-2.01-.51-1.34.17-2,.51-1.23.97-1.74,1.88c-.5.91-.91,2.17-1.21,3.77-.31,1.6-.46,3.65-.46,6.15s.15,4.57.46,6.16c.31,1.59.71,2.84,1.21,3.76.51.92,1.09,1.55,1.74,1.89s1.32.51,2,.51,1.35-.17,2.01-.51,1.25-.97,1.78-1.89.94-2.17,1.25-3.76c.31-1.59.47-3.64.47-6.16M175.27,128.19c0,3.16-.34,5.9-1.02,8.22-.68,2.32-1.62,4.24-2.82,5.76s-2.63,2.66-4.27,3.4-3.43,1.12-5.35,1.12-3.7-.37-5.33-1.12-3.04-1.88-4.23-3.4c-1.19-1.52-2.12-3.44-2.79-5.76-.67-2.32-1.01-5.06-1.01-8.22s.34-5.9,1.01-8.22c.67-2.32,1.6-4.24,2.79-5.76,1.19-1.52,2.61-2.65,4.23-3.39s3.41-1.11,5.33-1.11,3.71.37,5.35,1.11,3.07,1.87,4.27,3.39,2.14,3.44,2.82,5.76,1.02,5.06,1.02,8.22M167.32,128.19c0-2.5-.16-4.55-.47-6.15s-.73-2.85-1.25-3.77c-.52-.91-1.11-1.53-1.78-1.88s-1.33-.51-2.01-.51-1.34.17-2,.51-1.23.97-1.74,1.88c-.5.91-.91,2.17-1.21,3.77-.31,1.6-.46,3.65-.46,6.15s.15,4.57.46,6.16c.31,1.59.71,2.84,1.21,3.76.51.92,1.09,1.55,1.74,1.89s1.32.51,2,.51,1.35-.17,2.01-.51,1.25-.97,1.78-1.89.94-2.17,1.25-3.76.47-3.64.47-6.16" fill="#180000" stroke-width="0"/>
  <circle cx="123.92" cy="125.56" r="72.03" fill="none" stroke="#fff" stroke-dasharray="0 0 3.84 3.84" stroke-miterlimit="6.4" stroke-width="1.92"/>
</svg>
