<?xml version="1.0" encoding="UTF-8"?>
<svg id="Layer_1" data-name="Layer 1" xmlns="http://www.w3.org/2000/svg" xmlns:xlink="http://www.w3.org/1999/xlink" viewBox="0 0 241.81 241.88">
  <defs>
    <clipPath id="clippath">
      <circle cx="120.9" cy="120.94" r="120.9" fill="#b89206" stroke-width="0"/>
    </clipPath>
  </defs>
  <circle cx="120.9" cy="120.94" r="120.9" fill="#bc9645" stroke-width="0"/>
  <g>
    <circle cx="120.9" cy="120.94" r="120.9" fill="#b89206"/> 
    <g clip-path="url(#clippath)">
      <g>
      <style>

svg:hover #back {

animation: rotate 4s  ease forwards;
transform-origin: center;
}

@keyframes rotate{

0%{
  transform: rotate(0deg) translate(0)
}

100%{
  transform: rotate(360deg) translate(0)
}

}
</style>
<script>
console.log('JavaScript is running!');



const vectorGraphic = document.querySelector('#Layer_1');

function logThisId() {
    console.log(this);
    console.log('mountans:', this.id);
}

vectorGraphic.addEventListener('click', logThisId);
</script>
        <path id="back" d="M18.42,52.42l102.48,68.52L52.45,18.4,18.42,52.42ZM223.42,52.46l-34.01-34.03-68.5,102.51L.01,96.85v48.12s120.89-24.04,120.89-24.04L18.39,189.42l34.01,34.03,68.5-102.51-24.08,120.93h48.11s-24.03-120.93-24.03-120.93l68.46,102.54,34.02-34.02-102.48-68.52,102.51-68.48ZM241.81,96.9l-120.9,24.03,120.89,24.09v-48.12ZM96.88,0l24.03,120.94L144.98,0h-48.11Z" fill="#fbf065" fill-rule="evenodd" stroke-width="0"/>

        <path d="M145.09,224.92h-48.36c0-18.32-8.43-42.47-19.32-51.56-15.37-12.94-24.23-32.02-24.21-52.11,0-37.56,30.31-68.01,67.71-68.01s67.71,30.45,67.71,68.01c0,20.96-10.05,39-24.28,52.17-11.53,11.53-19.25,33.28-19.25,51.5Z" fill="#fbf065" fill-rule="evenodd" stroke="#f19c23" stroke-miterlimit="6.4" stroke-width="2.56"/>
        <path d="M128.16,229.75c-1.34,0-2.42-1.08-2.42-2.42v-79.8h-9.67v79.8c0,1.34-1.08,2.42-2.42,2.42h-4.84c-1.34,0-2.42-1.08-2.42-2.42v-79.8h-6.05c-8.67,0-15.72-7.05-15.72-15.72s7.05-15.72,15.72-15.72c7.93-.04,14.63,5.87,15.59,13.74.09.25.13.5.13.76v7.25h9.67v-7.25c0-.28.05-.55.14-.8.97-7.86,7.66-13.75,15.58-13.71,8.67,0,15.72,7.05,15.72,15.72s-7.05,15.72-15.72,15.72h-6.05v79.8c0,1.34-1.08,2.42-2.42,2.42h-4.84ZM141.46,137.86c3.33,0,6.05-2.71,6.05-6.05s-2.71-6.05-6.05-6.05c-2.99.02-5.52,2.23-5.95,5.18l-.1.42v6.49h6.05ZM100.35,125.77c-3.33,0-6.05,2.71-6.05,6.05s2.71,6.05,6.05,6.05h6.05v-6.51l-.1-.4c-.43-2.96-2.96-5.16-5.95-5.18" fill="#f19c23" fill-rule="evenodd" stroke-width="0"/>
        <path d="M91.89,220.08h58.03v21.76h-58.03v-21.76ZM106.4,154.79h9.67v-7.25h-9.67v7.25ZM125.74,147.54v7.25h9.67v-7.25h-9.67Z" fill="#e47e26" fill-rule="evenodd" stroke-width="0"/>
      </g>
    </g>
  </g>
</svg>