<?xml version="1.0" encoding="UTF-8"?>
<svg id="Layer_1" data-name="Layer 1" xmlns="http://www.w3.org/2000/svg" xmlns:xlink="http://www.w3.org/1999/xlink" viewBox="0 0 289.53 312.69">
  <defs>
    <clipPath id="clippath">
      <circle cx="144.77" cy="144.77" r="144.77" fill="#041849" stroke-width="0"/>
    </clipPath>
  </defs>
  <circle cx="144.77" cy="144.77" r="144.77" fill="#041849"/>
  <g clip-path="url(#clippath)">
  <style>

svg:hover {
cursor: pointer; 
    transform: scale(1.5);
    transition: transform 3s ease; 
    animation: colorChange 2s infinite;
    box-shadow: 10px ;
}

  
  @keyframes colorChange {
    0% { filter: hue-rotate(0deg); } 
    100% { filter: hue-rotate(180deg); } 
    0% { filter: hue-rotate(0deg); } 
  }
</style>
<script>
console.log('JavaScript is running!');



const vectorGraphic = document.querySelector('#Layer_1');

function logThisId() {
    console.log(this);
    console.log('100!:', this.id);
}

vectorGraphic.addEventListener('click', logThisId);
</script>
    <g>
    
      <circle cx="144.77" cy="144.77" r="144.77" fill="#0b386c" stroke-width="0"/>

      <path d="M40.78,310.01c-3.17,0-5.75-2.55-5.79-5.72l-.18-14.75h-14.54c-3.2,0-5.79-2.59-5.79-5.79v-57.91c0-.94.23-1.86.66-2.69l31.85-60.8c.46-.89,1.15-1.63,1.98-2.17l47.41-30.68,19.66-67.42c.63-2.16,2.46-3.76,4.68-4.1l.88-.07c1.94,0,3.74.97,4.82,2.58l16.27,24.4,15.49,5.16c1.31.44,2.42,1.33,3.13,2.52l40.45,67.42,23.99-14.39c2.54-1.53,5.83-.89,7.61,1.49l34.74,46.33c.24.32.45.66.62,1.02l20.27,43.43c1.15,2.47.43,5.4-1.73,7.05l-83.72,63.91c-1.01.77-2.24,1.19-3.51,1.19H40.78Z" fill="#fff" fill-rule="evenodd" stroke-width="0"/> 

       <path d="M200.02,304.22H40.78l-.24-20.48h-20.27v-57.91l31.85-60.8,49.22-31.85,20.27-69.49,17.37,26.06,17.37,5.79,43.43,72.38,28.95-17.37,34.74,46.33,20.27,43.43-83.72,63.91Z" fill="#ceebf1" fill-rule="evenodd" stroke-width="0"/> 

      <path d="M23.16,312.69c-3.2,0-5.79-2.59-5.79-5.79v-86.86c0-.9.21-1.79.61-2.59l28.95-57.91c.46-.93,1.17-1.71,2.04-2.27l47.27-30.59,16.83-70.13c.62-2.6,2.95-4.44,5.63-4.44h.11c2.72.05,5.03,1.99,5.57,4.65l8.69,43.43c.11.57.14,1.14.08,1.72l-2.9,28.95c-.05.48-.16.95-.32,1.4l-11.58,31.85-13.93,38.99,8.37,41.85c.2.99.13,2.01-.18,2.97l-11.28,33.85v25.12c0,3.2-2.59,5.79-5.79,5.79H23.16ZM205.56,240.31c-.98,0-1.96-.25-2.87-.76l-20.27-11.58c-2.34-1.34-3.45-4.11-2.68-6.69l17.37-57.91c.43-1.45,1.42-2.67,2.73-3.4l26.06-14.48c1.8-.99,3.98-.96,5.75.07,1.77,1.04,2.85,2.94,2.85,4.99v49.22c0,1.14-.34,2.26-.97,3.21l-23.16,34.74c-1.07,1.61-2.89,2.58-4.82,2.58" fill="#6dc8f1" fill-rule="evenodd" stroke-width="0"/>

      <path d="M202.67,165.03l-17.37,57.91,20.27,11.58,23.16-34.74v-49.22l-26.06,14.48ZM101.34,130.29l-49.22,31.85-28.95,57.91v86.86h72.38v-26.06l11.58-34.74-8.69-43.43,14.48-40.53,11.58-31.85,2.9-28.95-8.69-43.43-17.37,72.38Z" fill="#5ac1ed" fill-rule="evenodd" stroke-width="0"/>

      <circle cx="221.49" cy="85.41" r="4.34" fill="#fff" isolation="isolate" opacity=".2" stroke-width="0"/>

      <circle cx="41.98" cy="117.26" r="4.34" fill="#fff" isolation="isolate" opacity=".1" stroke-width="0"/>

      <circle cx="163.59" cy="44.88" r="4.34" fill="#fff" isolation="isolate" opacity=".43" stroke-width="0"/>
      
    </g>
  </g>
</svg>