<?xml version="1.0" encoding="UTF-8"?>
<svg id="Layer_1" data-name="Layer 1" xmlns="http://www.w3.org/2000/svg" xmlns:xlink="http://www.w3.org/1999/xlink" viewBox="0 0 289.53 312.69">
  <defs>
    <clipPath id="clippath">
      <path d="M0,144.77" fill="#041849" stroke-width="0"/>
    </clipPath>
    <clipPath id="clippath-1">
      <path d="M289.53,144.77" clip-path="url(#clippath)" fill="#041849" stroke-width="0"/>
    </clipPath>
    <clipPath id="clippath-2">
      <path d="M144.77,0" clip-path="url(#clippath-1)" fill="#041849" stroke-width="0"/>
    </clipPath>
  </defs>
  <g>
    <path d="M0,144.77" fill="#041849"/>
    <path d="M289.53,144.77" fill="#041849"/>
    <path d="M144.77,0" fill="#041849"/>
    <g clip-path="url(#clippath-2)">
      <g>
        <path d="M203.54,308.82c-1.01.77-2.24,1.19-3.51,1.19H40.78c-3.17,0-5.75-2.55-5.79-5.72" fill="#fff" fill-rule="evenodd" stroke-width="0"/>
        <path d="M268.11,193.41c.24.32.45.66.62,1.02l20.27,43.43c1.15,2.47.43,5.4-1.73,7.05" fill="#fff" fill-rule="evenodd" stroke-width="0"/>
        <path d="M20.27,289.53c-3.2,0-5.79-2.59-5.79-5.79v-57.91c0-.94.23-1.86.66-2.69" fill="#fff" fill-rule="evenodd" stroke-width="0"/>
        <path d="M263.47,196.88l20.27,43.43" fill="#ceebf1" fill-rule="evenodd" stroke-width="0"/>
        <path d="M101.34,306.9c0,3.2-2.59,5.79-5.79,5.79H23.16c-3.2,0-5.79-2.59-5.79-5.79v-86.86c0-.9.21-1.79.61-2.59" fill="#6dc8f1" fill-rule="evenodd" stroke-width="0"/>
        <path d="M23.16,220.04v86.86h72.38" fill="#5ac1ed" fill-rule="evenodd" stroke-width="0"/>
      </g>
    </g>
  </g>

<style>

svg:hover .moon, svg:hover #star1, svg:hover .stars {

animation: rotate 4s  ease forwards;
transform-origin: center;
}

@keyframes rotate{

0%{
  transform: rotate(0deg) translate(0)
}

100%{
  transform: rotate(360deg) translate(0)
}

}
</style>
<script>
console.log('JavaScript is running!');



const vectorGraphic = document.querySelector('#Layer_1');

function logThisId() {
    console.log(this);
    console.log('donat:', this.id);
}

vectorGraphic.addEventListener('click', logThisId);
</script>
<!-- bg -->

<!-- moon and the background together hear me out  we need to make moon and the backgrloidn and the other stars, but i want to keep them rotating u can hover it aswell just put linear and put infinite oh yeah right it down -->
  <circle class="moon"  cx="147.76" cy="150.26" r="105.57" fill="#2a3138" stroke-width="0"/>
  <circle class="moon" cx="213.22" cy="108.03" r="10.56" fill="#9d9fa2" stroke-width="0"/>


<!-- 1 star -->
  <path id="star1" d="M209,102.75c5.38-.95,8.55-4.12,9.5-9.5.95,5.38,4.12,8.55,9.5,9.5-5.38.95-8.55,4.12-9.5,9.5-.95-5.38-4.12-8.55-9.5-9.5" fill="#fff" stroke-width="0"/>

<!-- Stars -->
  <circle class="stars" cx="172.04" cy="75.3" r="3.17" fill="#fff" isolation="isolate" opacity=".6" stroke-width="0"/>
  <circle class="stars" cx="136.15" cy="68.96" r="3.17" fill="#fff" isolation="isolate" opacity=".2" stroke-width="0"/>
  <circle class="stars" cx="77.03" cy="119.64" r="3.17" fill="#fff" isolation="isolate" opacity=".6" stroke-width="0"/>
  <circle class="stars" cx="117.15" cy="220.99" r="3.17" fill="#fff" isolation="isolate" opacity=".3" stroke-width="0"/>
  <circle class="stars" cx="186.83" cy="216.77" r="3.17" fill="#fff" isolation="isolate" opacity=".4" stroke-width="0"/>
  <circle class="stars" cx="222.72" cy="174.54" r="3.17" fill="#fff" isolation="isolate" opacity=".6" stroke-width="0"/>
  <circle class="stars" cx="147.76" cy="150.26" r="52.79" fill="#3d97d3" stroke-width="0"/>

<!-- greenmass -->
  <path d="M198.43,165.05c-11.13,18.73-41.92,32.54-55.16,37.79,1.48.13,2.98.2,4.5.2,24.01,0,44.27-16.04,50.67-37.99M185.64,141.81c.13-16.63-2.21-16.8-16.89-14.78-7.19.99-13.53,3.63-23.23,8.45l-21.11,19s-3.25-6.13-8.45,2.11c-3.5,5.54-2.11,10.56-2.11,10.56,0,0,6.33-7,12.67-8.45,3.14-.72,25.4-12.47,25.34,2.11-.06,13.21-24.91,31.07-30.57,35.1.83.48,1.67.94,2.53,1.38,3.53-.54,9.75-2.35,19.6-6.92,14.65-6.8,42.08-29.94,42.23-48.57" fill="#49b749" isolation="isolate" opacity=".88" stroke-width="0"/>


<!-- landmass blue -->
  <path d="M198.43,165.05c1.4-4.81,2.12-9.79,2.12-14.8,0-25.96-18.75-47.53-43.44-51.95-.78.34-2.43.75-5.24,1.27-18.43,3.38-35.57,14.52-46.45,31.67-2.31,2.64-4.22,10.56-4.22,10.56,0,0-.41,4.22,2.11,4.22s.74-6.71,4.22-10.56c3.37-3.71,10.55-15.59,21.11-21.11,6.83-3.67,28.7-8.98,40.12,0,11.8,9.32-18.33-8.54-33.87,15.11-3.9,5.94-6.5-3.92-12.58-.33-6.8,4.01-4.35,5.08-12.67,23.23-6.09,13.3-1.29,25.87-2.81,31.21,4.04,4.95,8.94,9.13,14.46,12.34,5.67-4.04,30.51-21.9,30.57-35.1.07-14.58-22.2-2.83-25.34-2.11-6.33,1.45-12.67,8.45-12.67,8.45,0,0-1.39-5.01,2.11-10.56,5.2-8.24,8.45-2.11,8.45-2.11,0,0,11.41-14.19,21.11-19,9.7-4.82,16.03-7.46,23.23-8.45,14.68-2.02,17.02-1.85,16.89,14.78-.15,18.63-27.58,41.77-42.23,48.56-9.85,4.57-16.06,6.38-19.6,6.92,6.06,3.09,12.67,4.97,19.45,5.54,13.24-5.24,44.03-19.05,55.16-37.78" fill="#006ea6" stroke-width="0"/>
  


   <!-- landmass -->
  <path d="M109.63,152.37c8.32-18.15,5.87-19.21,12.67-23.23,6.09-3.59,8.68,6.26,12.58.33,15.55-23.64,45.67-5.79,33.87-15.11-11.41-8.98-33.29-3.67-40.12,0-10.57,5.52-17.75,17.4-21.11,21.11-3.48,3.84-1.7,10.56-4.22,10.56l-2.11-4.22s1.91-7.92,4.22-10.56c10.89-17.16,28.02-28.29,46.45-31.67,2.81-.52,4.47-.93,5.24-1.27-3.08-.55-6.21-.84-9.34-.84-29.15,0-52.79,23.63-52.79,52.79-.02,12.14,4.17,23.91,11.85,33.32,1.52-5.33-3.29-17.91,2.81-31.21" fill="#5cba47" isolation="isolate" opacity=".88" stroke-width="0"/> 
</svg>